<svg xmlns="http://www.w3.org/2000/svg" xmlns:xlink="http://www.w3.org/1999/xlink" width="118" height="25" viewBox="0 0 118 25" fill="none">
<path     fill="#FFFFFF"  d="M10.38 16.22C10.38 16.5247 10.14 16.75 10.14 16.75C9.8939 16.9609 9.56999 16.96 9.56999 16.96C9.23015 16.96 8.97999 16.75 8.97999 16.75C8.74562 16.5273 8.74999 16.22 8.74999 16.22L8.74999 12.2C8.74999 10.9461 7.86999 10.07 7.86999 10.07C7.01452 9.22624 5.83999 9.21999 5.83999 9.21999L5.53999 9.21999C4.36812 9.21999 3.51999 10.07 3.51999 10.07C2.64108 10.9489 2.63999 12.2 2.63999 12.2L2.63999 16.22C2.63999 16.5247 2.38999 16.75 2.38999 16.75C2.15562 16.9609 1.81999 16.96 1.81999 16.96C1.48015 16.96 1.22999 16.75 1.22999 16.75C0.995615 16.5273 0.99999 16.22 0.99999 16.22L0.99999 12.2C0.99999 10.3836 2.29999 9.07999 2.29999 9.07999C3.63593 7.74406 5.53999 7.74999 5.53999 7.74999L5.83999 7.74999C7.73843 7.74999 9.06999 9.07999 9.06999 9.07999C10.3708 10.3808 10.38 12.2 10.38 12.2L10.38 16.22Z">
</path>
<path     fill="#EA5252"  d="M17.44 7.74999C19.3384 7.74999 20.68 9.07999 20.68 9.07999C21.9808 10.3808 21.98 12.2 21.98 12.2L21.98 12.5C21.98 14.3164 20.68 15.62 20.68 15.62C19.3441 16.9559 17.44 16.96 17.44 16.96L17.14 16.96C15.2416 16.96 13.9 15.62 13.9 15.62C12.5992 14.3192 12.6 12.5 12.6 12.5L12.6 12.2C12.6 10.3836 13.9 9.07999 13.9 9.07999C15.2359 7.74406 17.14 7.74999 17.14 7.74999L17.44 7.74999ZM17.14 9.21999C15.9681 9.21999 15.12 10.07 15.12 10.07C14.2411 10.9489 14.24 12.2 14.24 12.2L14.24 12.5C14.24 13.7539 15.12 14.64 15.12 14.64C15.9637 15.4837 17.14 15.48 17.14 15.48L17.44 15.48C18.6119 15.48 19.47 14.64 19.47 14.64C20.3489 13.7611 20.35 12.5 20.35 12.5L20.35 12.2C20.35 10.9461 19.47 10.07 19.47 10.07C18.6145 9.22624 17.44 9.21999 17.44 9.21999L17.14 9.21999Z">
</path>
<path     fill="#FFFFFF"  d="M33.58 16.22C33.58 16.5247 33.34 16.75 33.34 16.75C33.0939 16.9609 32.77 16.96 32.77 16.96C32.4301 16.96 32.18 16.75 32.18 16.75C31.9456 16.5273 31.95 16.22 31.95 16.22L31.95 12.2C31.95 10.9461 31.07 10.07 31.07 10.07C30.2145 9.22624 29.04 9.21999 29.04 9.21999L28.74 9.21999C27.5681 9.21999 26.72 10.07 26.72 10.07C25.8411 10.9489 25.84 12.2 25.84 12.2L25.84 16.22C25.84 16.5247 25.6 16.75 25.6 16.75C25.3656 16.9609 25.02 16.96 25.02 16.96C24.6801 16.96 24.44 16.75 24.44 16.75C24.2056 16.5273 24.2 16.22 24.2 16.22L24.2 12.2C24.2 10.3836 25.5 9.07999 25.5 9.07999C26.8359 7.74406 28.74 7.74999 28.74 7.74999L29.04 7.74999C30.9384 7.74999 32.28 9.07999 32.28 9.07999C33.5808 10.3808 33.58 12.2 33.58 12.2L33.58 16.22Z">
</path>
<path     fill="#FFFFFF"  d="M41.75 15.27C42.0547 15.1411 42.37 15.23 42.37 15.23C42.6864 15.3355 42.84 15.62 42.84 15.62C42.9806 15.8895 42.86 16.18 42.86 16.18C42.7428 16.4612 42.44 16.59 42.44 16.59C41.5845 16.9533 40.34 16.96 40.34 16.96C38.4416 16.96 37.11 15.62 37.11 15.62C35.8092 14.3192 35.8 12.5 35.8 12.5L35.8 12.2C35.8 10.3836 37.11 9.07999 37.11 9.07999C38.4459 7.74406 40.34 7.74999 40.34 7.74999L40.64 7.74999C42.5384 7.74999 43.88 9.07999 43.88 9.07999C45.1808 10.3808 45.18 12.2 45.18 12.2C45.18 12.5047 44.95 12.71 44.95 12.71C44.7156 12.9326 44.37 12.94 44.37 12.94L39.39 12.94C39.0501 12.94 38.82 12.71 38.82 12.71C38.5856 12.4991 38.58 12.2 38.58 12.2C38.58 11.8953 38.82 11.67 38.82 11.67C39.0544 11.4591 39.39 11.46 39.39 11.46L43.46 11.46C43.2608 10.6514 42.67 10.07 42.67 10.07C41.8145 9.22624 40.64 9.21999 40.64 9.21999L40.34 9.21999C39.1681 9.21999 38.32 10.07 38.32 10.07C37.4411 10.9489 37.45 12.2 37.45 12.2L37.45 12.5C37.45 13.7539 38.32 14.64 38.32 14.64C39.1637 15.4837 40.34 15.48 40.34 15.48C41.2189 15.48 41.75 15.27 41.75 15.27Z">
</path>
<path     fill="#EA5252"  d="M54.5 2.73999C54.5 2.43531 54.73 2.21999 54.73 2.21999C54.9761 1.99734 55.32 1.99999 55.32 1.99999C55.6481 1.99999 55.89 2.21999 55.89 2.21999C56.1244 2.43093 56.13 2.73999 56.13 2.73999L56.13 12.5C56.13 14.3164 54.82 15.62 54.82 15.62C53.4841 16.9559 51.59 16.96 51.59 16.96L51.29 16.96C49.3916 16.96 48.05 15.62 48.05 15.62C46.7492 14.3192 46.75 12.5 46.75 12.5L46.75 12.2C46.75 10.3836 48.05 9.07999 48.05 9.07999C49.3859 7.74406 51.29 7.74999 51.29 7.74999C52.5322 7.74999 53.38 8.10999 53.38 8.10999C53.6847 8.2389 53.8 8.52999 53.8 8.52999C53.9172 8.81124 53.78 9.08999 53.78 9.08999C53.6276 9.35953 53.31 9.46999 53.31 9.46999C52.9936 9.57546 52.69 9.44999 52.69 9.44999C52.1626 9.22734 51.29 9.21999 51.29 9.21999C50.1181 9.21999 49.27 10.07 49.27 10.07C48.3911 10.9489 48.39 12.2 48.39 12.2L48.39 12.5C48.39 13.7539 49.27 14.64 49.27 14.64C50.1137 15.4837 51.29 15.48 51.29 15.48L51.59 15.48C52.7619 15.48 53.62 14.64 53.62 14.64C54.4989 13.7611 54.5 12.5 54.5 12.5L54.5 2.73999Z">
</path>
<path     fill="#FFFFFF"  d="M64.29 15.27C64.5947 15.1411 64.91 15.23 64.91 15.23C65.2264 15.3355 65.38 15.62 65.38 15.62C65.5206 15.8895 65.41 16.18 65.41 16.18C65.2928 16.4612 64.98 16.59 64.98 16.59C64.1245 16.9533 62.89 16.96 62.89 16.96C60.9916 16.96 59.65 15.62 59.65 15.62C58.3492 14.3192 58.35 12.5 58.35 12.5L58.35 12.2C58.35 10.3836 59.65 9.07999 59.65 9.07999C60.9859 7.74406 62.89 7.74999 62.89 7.74999L63.19 7.74999C65.0884 7.74999 66.43 9.07999 66.43 9.07999C67.7308 10.3808 67.73 12.2 67.73 12.2C67.73 12.5047 67.49 12.71 67.49 12.71C67.2556 12.9326 66.92 12.94 66.92 12.94L61.94 12.94C61.6001 12.94 61.36 12.71 61.36 12.71C61.1256 12.4991 61.13 12.2 61.13 12.2C61.13 11.8953 61.36 11.67 61.36 11.67C61.5944 11.4591 61.94 11.46 61.94 11.46L66 11.46C65.8008 10.6514 65.22 10.07 65.22 10.07C64.3645 9.22624 63.19 9.21999 63.19 9.21999L62.89 9.21999C61.7181 9.21999 60.87 10.07 60.87 10.07C59.9911 10.9489 59.99 12.2 59.99 12.2L59.99 12.5C59.99 13.7539 60.87 14.64 60.87 14.64C61.7137 15.4837 62.89 15.48 62.89 15.48C63.7689 15.48 64.29 15.27 64.29 15.27Z">
</path>
<path     fill="#FFFFFF"  d="M77 7.74999C77.3398 7.74999 77.58 7.95999 77.58 7.95999C77.8144 8.18265 77.82 8.47999 77.82 8.47999C77.82 8.78468 77.58 8.99999 77.58 8.99999C77.3339 9.22265 77 9.21999 77 9.21999L76.12 9.21999C74.9364 9.21999 74.48 9.65999 74.48 9.65999C73.9995 10.1287 74 11.31 74 11.31L74 13.39C74 15.1478 73.07 16.04 73.07 16.04C72.1208 16.9541 70.23 16.96 70.23 16.96L69.36 16.96C69.0201 16.96 68.77 16.75 68.77 16.75C68.5356 16.5273 68.54 16.22 68.54 16.22C68.54 15.9153 68.77 15.7 68.77 15.7C69.0161 15.4773 69.36 15.48 69.36 15.48L70.23 15.48C71.4136 15.48 71.88 15.05 71.88 15.05C72.3605 14.5812 72.36 13.39 72.36 13.39L72.36 11.31C72.36 9.55218 73.28 8.65999 73.28 8.65999C74.2409 7.74593 76.12 7.74999 76.12 7.74999L77 7.74999Z">
</path>
<path     fill="#FFFFFF"  d="M87.71 16.22C87.71 16.5247 87.47 16.75 87.47 16.75C87.2239 16.9609 86.89 16.96 86.89 16.96C86.5619 16.96 86.31 16.75 86.31 16.75C86.0756 16.5273 86.08 16.22 86.08 16.22C86.08 14.9309 85.01 14.02 85.01 14.02C83.9436 13.0942 82.42 13.09 82.42 13.09C82.0801 13.09 81.85 12.87 81.85 12.87C81.6039 12.6591 81.6 12.35 81.6 12.35C81.6 11.9984 81.91 11.78 81.91 11.78L85.87 7.92999C86.1161 7.71906 86.45 7.72999 86.45 7.72999C86.7898 7.72999 87.03 7.95999 87.03 7.95999C87.2644 8.18265 87.25 8.47999 87.25 8.47999C87.2383 8.78468 86.93 9.06999 86.93 9.06999L84.07 11.87C85.2887 12.2098 86.15 12.95 86.15 12.95C87.7086 14.3094 87.71 16.22 87.71 16.22ZM79.63 2.73999C79.63 2.43531 79.87 2.20999 79.87 2.20999C80.1161 1.99906 80.45 1.99999 80.45 1.99999C80.7781 1.99999 81.03 2.20999 81.03 2.20999C81.2644 2.43265 81.26 2.73999 81.26 2.73999L81.26 16.22C81.26 16.5247 81.03 16.73 81.03 16.73C80.7839 16.9527 80.45 16.96 80.45 16.96C80.1101 16.96 79.87 16.73 79.87 16.73C79.6356 16.5191 79.63 16.22 79.63 16.22L79.63 2.73999Z">
</path>
<path     fill="#FFFFFF"  d="M91.29 7.74999L94.2 7.74999C94.5398 7.74999 94.77 7.95999 94.77 7.95999C95.0161 8.18265 95.02 8.47999 95.02 8.47999C95.02 8.78468 94.77 8.99999 94.77 8.99999C94.5356 9.22265 94.2 9.21999 94.2 9.21999L91.29 9.21999L91.29 12.19C91.29 13.6431 92.11 14.58 92.11 14.58C92.8951 15.4941 94.2 15.49 94.2 15.49C94.5398 15.49 94.77 15.7 94.77 15.7C95.0161 15.9109 95.02 16.22 95.02 16.22C95.02 16.5247 94.77 16.75 94.77 16.75C94.5356 16.9609 94.2 16.96 94.2 16.96C92.1023 16.96 90.82 15.48 90.82 15.48C89.6598 14.1558 89.66 12.19 89.66 12.19L89.66 2.73999C89.66 2.43531 89.9 2.21999 89.9 2.21999C90.1461 1.99734 90.48 1.99999 90.48 1.99999C90.8081 1.99999 91.06 2.21999 91.06 2.21999C91.2944 2.43093 91.29 2.73999 91.29 2.73999L91.29 7.74999Z">
</path>
<path     fill="#FFFFFF"  d="M101.32 7.74999C103.218 7.74999 104.56 9.07999 104.56 9.07999C105.861 10.3808 105.86 12.2 105.86 12.2L105.86 12.5C105.86 14.3164 104.56 15.62 104.56 15.62C103.224 16.9559 101.32 16.96 101.32 16.96L101.02 16.96C99.1216 16.96 97.79 15.62 97.79 15.62C96.4892 14.3192 96.48 12.5 96.48 12.5L96.48 12.2C96.48 10.3836 97.79 9.07999 97.79 9.07999C99.1259 7.74406 101.02 7.74999 101.02 7.74999L101.32 7.74999ZM101.02 9.21999C99.8481 9.21999 99 10.07 99 10.07C98.1211 10.9489 98.13 12.2 98.13 12.2L98.13 12.5C98.13 13.7539 99 14.64 99 14.64C99.8437 15.4837 101.02 15.48 101.02 15.48L101.32 15.48C102.492 15.48 103.35 14.64 103.35 14.64C104.229 13.7611 104.23 12.5 104.23 12.5L104.23 12.2C104.23 10.9461 103.35 10.07 103.35 10.07C102.495 9.22624 101.32 9.21999 101.32 9.21999L101.02 9.21999Z">
</path>
<path     fill="#FFFFFF"  d="M109.71 21.95C109.71 22.2547 109.48 22.47 109.48 22.47C109.246 22.6926 108.91 22.69 108.91 22.69C108.57 22.69 108.32 22.47 108.32 22.47C108.086 22.2591 108.09 21.95 108.09 21.95L108.09 12.19C108.09 10.3736 109.39 9.06999 109.39 9.06999C110.726 7.73406 112.62 7.72999 112.62 7.72999L112.93 7.72999C114.828 7.72999 116.16 9.06999 116.16 9.06999C117.461 10.3708 117.46 12.19 117.46 12.19L117.46 12.49C117.46 14.3064 116.16 15.61 116.16 15.61C114.824 16.9459 112.93 16.95 112.93 16.95L112.62 16.95C112.163 16.95 111.71 16.85 111.71 16.85C111.253 16.7562 110.83 16.58 110.83 16.58C110.525 16.4511 110.41 16.17 110.41 16.17C110.293 15.877 110.44 15.61 110.44 15.61C110.581 15.3287 110.9 15.22 110.9 15.22C111.216 15.1262 111.52 15.26 111.52 15.26C111.79 15.3655 112.06 15.42 112.06 15.42C112.33 15.4669 112.62 15.47 112.62 15.47L112.93 15.47C114.102 15.47 114.94 14.63 114.94 14.63C115.819 13.7511 115.82 12.49 115.82 12.49L115.82 12.19C115.82 10.9361 114.94 10.05 114.94 10.05C114.096 9.20624 112.93 9.20999 112.93 9.20999L112.62 9.20999C111.448 9.20999 110.61 10.05 110.61 10.05C109.719 10.9289 109.71 12.19 109.71 12.19L109.71 21.95Z">
</path>
</svg>
